<svg xmlns="http://www.w3.org/2000/svg" width="48" height="58" fill="none" xmlns:v="https://vecta.io/nano"><g filter="url(#A)"><circle cx="24" cy="20" r="18" fill="#fff"/><path d="M23.708 49.008c7.679-8.522 19.708-19.033 19.708-29.4C43.415 8.797 34.574 0 23.708 0S4 8.797 4 19.608c0 10.349 11.976 20.829 19.708 29.4zM6.77 19.607c0-9.3 7.598-16.866 16.937-16.866s16.936 7.566 16.936 16.866-7.598 16.867-16.936 16.867S6.77 28.908 6.77 19.607z" fill="#368a34"/><path d="M23.235 10L11 14.079l3.505 1.168h.001l8.729 2.91 8.73-2.91 3.505-1.168L23.235 10zm3.199 5.093h-1.92-2.559-1.919a.32.32 0 0 1-.32-.32.32.32 0 0 1 .32-.319h1.599v-.32a1.6 1.6 0 0 1 1.599-1.599 1.6 1.6 0 0 1 1.599 1.599v.32h1.6a.32.32 0 0 1 .32.319.32.32 0 0 1-.32.32z" fill="#368a34"/><path d="M23.235 13.174a.96.96 0 0 0-.959.96v.32h1.919v-.32a.96.96 0 0 0-.96-.96z" fill="#368a34"/><path d="M23.555 27.122l8.191-2.786v-8.342l-8.191 2.73v8.398z" fill="#368a34"/><path d="M14.724 24.336l8.191 2.786v-8.398l-8.191-2.73v8.342z" fill="#368a34"/><path d="M35.599 24.517v-8.676h-.639v8.661l-1.685 1.684 1.997 1.997 1.997-1.997-1.67-1.67z" fill="#368a34"/></g><defs><filter id="A" x="0" y="0" width="47.415" height="57.008" filterUnits="userSpaceOnUse" color-interpolation-filters="sRGB"><feFlood flood-opacity="0" result="A"/><feColorMatrix in="SourceAlpha" values="0 0 0 0 0 0 0 0 0 0 0 0 0 0 0 0 0 0 127 0" result="B"/><feOffset dy="4"/><feGaussianBlur stdDeviation="2"/><feComposite in2="B" operator="out"/><feColorMatrix values="0 0 0 0 0 0 0 0 0 0 0 0 0 0 0 0 0 0 0.25 0"/><feBlend in2="A"/><feBlend in="SourceGraphic"/></filter></defs></svg>