<svg xmlns="http://www.w3.org/2000/svg" width="48" height="58" fill="none" xmlns:v="https://vecta.io/nano"><g filter="url(#A)"><circle cx="23" cy="20" r="18" fill="#fff"/><path d="M23.708 49.008c7.679-8.522 19.708-19.033 19.708-29.4C43.415 8.797 34.574 0 23.708 0S4 8.797 4 19.608c0 10.349 11.976 20.829 19.708 29.4zM6.77 19.607c0-9.3 7.598-16.866 16.937-16.866s16.936 7.566 16.936 16.866-7.598 16.867-16.936 16.867S6.77 28.908 6.77 19.607z" fill="#001aff"/><path d="M14.747 15.007V27h17.4V15.007h-1.066l-.624 1.713h-1.285l.624-1.713h-.624l-.624 1.713h-1.285l.625-1.713h-.625l-.622 1.713h-1.285l.622-1.713h-.622l-.625 1.713h-1.285l.625-1.713h-.625l-.624 1.713h-1.285l.624-1.713h-.624l-.624 1.713h-1.285l.625-1.713h-.625l-.622 1.713h-1.285l.622-1.713h-.622l-.625 1.713h-1.285l.625-1.713h-1.69z" fill="#001aff"/><path d="M14.001 12.952l.748 2.055 16.352-5.952L30.353 7l-1.001.365v1.824l-1.208.44V7.804l-.587.214v1.823l-1.207.439V8.457l-.586.213v1.824l-1.208.44V9.11l-.587.214v1.823l-1.208.439V9.763l-.585.213v1.824l-1.207.44v-1.824l-.587.214v1.824l-1.208.439v-1.824l-.587.214v1.823l-1.207.44v-1.823l-.584.213v1.824l-1.208.44v-1.824L14 12.952h.001z" fill="#001aff"/></g><defs><filter id="A" x="0" y="0" width="47.415" height="57.008" filterUnits="userSpaceOnUse" color-interpolation-filters="sRGB"><feFlood flood-opacity="0" result="A"/><feColorMatrix in="SourceAlpha" values="0 0 0 0 0 0 0 0 0 0 0 0 0 0 0 0 0 0 127 0" result="B"/><feOffset dy="4"/><feGaussianBlur stdDeviation="2"/><feComposite in2="B" operator="out"/><feColorMatrix values="0 0 0 0 0 0 0 0 0 0 0 0 0 0 0 0 0 0 0.25 0"/><feBlend in2="A"/><feBlend in="SourceGraphic"/></filter></defs></svg>