<svg xmlns="http://www.w3.org/2000/svg" width="48" height="58" fill="none" xmlns:v="https://vecta.io/nano"><g filter="url(#A)"><circle cx="24" cy="20" r="18" fill="#fff"/><path d="M37.714 23.429H10V25h27.714v-1.571z" fill="#ff2727"/><path d="M25 11.286c0-.714-.572-1.286-1.143-1.286s-1.143.571-1.143 1.143v.143c-5.857.571-10.572 5.571-10.572 11.714h23.429C35.571 16.857 31 11.857 25 11.286z" fill="#ff2727"/><path d="M23.708 49.008c7.679-8.522 19.708-19.033 19.708-29.4C43.415 8.797 34.574 0 23.708 0S4 8.797 4 19.608c0 10.349 11.976 20.829 19.708 29.4zM6.77 19.607c0-9.3 7.598-16.866 16.937-16.866s16.936 7.566 16.936 16.866-7.598 16.867-16.936 16.867S6.77 28.908 6.77 19.607z" fill="#ff2727"/></g><defs><filter id="A" x="0" y="0" width="47.415" height="57.008" filterUnits="userSpaceOnUse" color-interpolation-filters="sRGB"><feFlood flood-opacity="0" result="A"/><feColorMatrix in="SourceAlpha" values="0 0 0 0 0 0 0 0 0 0 0 0 0 0 0 0 0 0 127 0" result="B"/><feOffset dy="4"/><feGaussianBlur stdDeviation="2"/><feComposite in2="B" operator="out"/><feColorMatrix values="0 0 0 0 0 0 0 0 0 0 0 0 0 0 0 0 0 0 0.25 0"/><feBlend in2="A"/><feBlend in="SourceGraphic"/></filter></defs></svg>