<svg xmlns="http://www.w3.org/2000/svg" width="48" height="58" fill="none" xmlns:v="https://vecta.io/nano"><g filter="url(#A)"><circle cx="24" cy="20" r="18" fill="#fff"/><path d="M23.708 49.008c7.679-8.522 19.708-19.033 19.708-29.4C43.415 8.797 34.574 0 23.708 0S4 8.797 4 19.608c0 10.349 11.976 20.829 19.708 29.4zM6.77 19.607c0-9.3 7.598-16.866 16.937-16.866s16.936 7.566 16.936 16.866-7.598 16.867-16.936 16.867S6.77 28.908 6.77 19.607z" fill="#3294aa"/><path d="M33.646 17.174v9.012c0 .283-.231.512-.514.512H14.435c-.283 0-.513-.229-.513-.512v-8.737l1.999.701v3.574a1.23 1.23 0 0 0-.351.861v.775c0 .682.554 1.235 1.235 1.235h.153c.681 0 1.234-.554 1.234-1.235v-.775c0-.335-.134-.642-.352-.864v-2.898l4.445 1.558v.408c0 .823.67 1.492 1.493 1.492s1.492-.67 1.492-1.492v-.441l4.441-1.683v3.056c-.217.222-.35.528-.35.864v.775c0 .682.551 1.235 1.234 1.235h.151c.682 0 1.235-.554 1.235-1.235v-.775c0-.335-.134-.638-.35-.861v-3.786l2.014-.765z" fill="#3294aa"/><path d="M36.569 16.065v11.438c0 1.084-.88 1.965-1.963 1.965H12.963c-1.084 0-1.963-.881-1.963-1.965v-11.08l1.963.688v9.074c0 .811.661 1.471 1.472 1.471h18.697c.812 0 1.473-.66 1.473-1.471V16.81l1.963-.745z" fill="#3294aa"/><path d="M36.569 12.987v2.281l-11.321 4.289c-.121-.702-.734-1.237-1.47-1.237-.75 0-1.371.553-1.477 1.275L11 15.633v-2.647c0-1.083.879-1.963 1.963-1.963h21.641c1.083.001 1.964.88 1.964 1.964z" fill="#3294aa"/><path d="M27.152 5.532h-5.9a2.12 2.12 0 0 0-2.114 2.114v2.523h1.385V7.647a.73.73 0 0 1 .728-.728h.598c.081.256.32.444.604.444h3.497c.284 0 .524-.187.604-.444h.598a.73.73 0 0 1 .728.728v2.523h1.385V7.647c0-1.166-.948-2.115-2.113-2.115z" fill="#3294aa"/><path d="M17.308 21.977v-3.342l-.853-.299v3.641c-.209.121-.352.35-.352.608v.775c0 .385.316.702.702.702h.153c.386 0 .701-.316.701-.702v-.775c0-.26-.142-.486-.351-.608z" fill="#3294aa"/><path d="M31.095 21.977v-3.838l-.852.323v3.515a.7.7 0 0 0-.351.607v.775c0 .386.316.702.701.702h.153c.385 0 .702-.316.702-.702v-.775c0-.257-.142-.483-.352-.606z" fill="#3294aa"/><path d="M23.777 21.749c-.528 0-.96-.432-.96-.96v-.977c0-.527.432-.96.96-.96a.96.96 0 0 1 .959.96v.977a.96.96 0 0 1-.959.96z" fill="#3294aa"/></g><defs><filter id="A" x="0" y="0" width="47.415" height="57.008" filterUnits="userSpaceOnUse" color-interpolation-filters="sRGB"><feFlood flood-opacity="0" result="A"/><feColorMatrix in="SourceAlpha" values="0 0 0 0 0 0 0 0 0 0 0 0 0 0 0 0 0 0 127 0" result="B"/><feOffset dy="4"/><feGaussianBlur stdDeviation="2"/><feComposite in2="B" operator="out"/><feColorMatrix values="0 0 0 0 0 0 0 0 0 0 0 0 0 0 0 0 0 0 0.25 0"/><feBlend in2="A"/><feBlend in="SourceGraphic"/></filter></defs></svg>